<mxfile host="app.diagrams.net" agent="Mozilla/5.0 (Windows NT 10.0; Win64; x64) AppleWebKit/537.36 (KHTML, like Gecko) Chrome/129.0.0.0 Safari/537.36" version="24.7.17">
  <diagram id="wPAPO6acnDJS6ejxIdm-" name="Sayfa -1">
    <mxGraphModel dx="1436" dy="894" grid="1" gridSize="10" guides="1" tooltips="1" connect="1" arrows="1" fold="1" page="1" pageScale="1" pageWidth="827" pageHeight="1169" math="0" shadow="0">
      <root>
        <mxCell id="0" />
        <mxCell id="1" parent="0" />
        <mxCell id="wE1RDp60XvU6DdDBw3GV-4" style="edgeStyle=orthogonalEdgeStyle;rounded=0;orthogonalLoop=1;jettySize=auto;html=1;exitX=0.5;exitY=1;exitDx=0;exitDy=0;" edge="1" parent="1" source="wE1RDp60XvU6DdDBw3GV-1" target="wE1RDp60XvU6DdDBw3GV-5">
          <mxGeometry relative="1" as="geometry">
            <mxPoint x="414" y="320" as="targetPoint" />
          </mxGeometry>
        </mxCell>
        <mxCell id="wE1RDp60XvU6DdDBw3GV-1" value="Do" style="rounded=0;whiteSpace=wrap;html=1;" vertex="1" parent="1">
          <mxGeometry x="354" y="180" width="120" height="60" as="geometry" />
        </mxCell>
        <mxCell id="wE1RDp60XvU6DdDBw3GV-3" style="edgeStyle=orthogonalEdgeStyle;rounded=0;orthogonalLoop=1;jettySize=auto;html=1;exitX=0.5;exitY=1;exitDx=0;exitDy=0;entryX=0.5;entryY=0;entryDx=0;entryDy=0;" edge="1" parent="1" source="wE1RDp60XvU6DdDBw3GV-2" target="wE1RDp60XvU6DdDBw3GV-1">
          <mxGeometry relative="1" as="geometry" />
        </mxCell>
        <mxCell id="wE1RDp60XvU6DdDBw3GV-2" value="Start" style="rounded=1;whiteSpace=wrap;html=1;" vertex="1" parent="1">
          <mxGeometry x="354" y="50" width="120" height="60" as="geometry" />
        </mxCell>
        <mxCell id="wE1RDp60XvU6DdDBw3GV-11" style="edgeStyle=orthogonalEdgeStyle;rounded=0;orthogonalLoop=1;jettySize=auto;html=1;exitX=0.5;exitY=1;exitDx=0;exitDy=0;entryX=0.5;entryY=0;entryDx=0;entryDy=0;" edge="1" parent="1" source="wE1RDp60XvU6DdDBw3GV-5" target="wE1RDp60XvU6DdDBw3GV-7">
          <mxGeometry relative="1" as="geometry" />
        </mxCell>
        <mxCell id="wE1RDp60XvU6DdDBw3GV-5" value="&lt;div&gt;regem /= 10;&lt;/div&gt;&lt;div&gt;sayan++;&lt;/div&gt;" style="rounded=0;whiteSpace=wrap;html=1;" vertex="1" parent="1">
          <mxGeometry x="354" y="290" width="120" height="60" as="geometry" />
        </mxCell>
        <mxCell id="wE1RDp60XvU6DdDBw3GV-12" style="edgeStyle=orthogonalEdgeStyle;rounded=0;orthogonalLoop=1;jettySize=auto;html=1;exitX=1;exitY=0.5;exitDx=0;exitDy=0;entryX=1;entryY=0.5;entryDx=0;entryDy=0;" edge="1" parent="1" source="wE1RDp60XvU6DdDBw3GV-7" target="wE1RDp60XvU6DdDBw3GV-5">
          <mxGeometry relative="1" as="geometry">
            <Array as="points">
              <mxPoint x="640" y="480" />
              <mxPoint x="640" y="320" />
            </Array>
          </mxGeometry>
        </mxCell>
        <mxCell id="wE1RDp60XvU6DdDBw3GV-13" value="True" style="edgeLabel;html=1;align=center;verticalAlign=middle;resizable=0;points=[];" vertex="1" connectable="0" parent="wE1RDp60XvU6DdDBw3GV-12">
          <mxGeometry x="-0.001" relative="1" as="geometry">
            <mxPoint as="offset" />
          </mxGeometry>
        </mxCell>
        <mxCell id="wE1RDp60XvU6DdDBw3GV-15" style="edgeStyle=orthogonalEdgeStyle;rounded=0;orthogonalLoop=1;jettySize=auto;html=1;exitX=0.5;exitY=1;exitDx=0;exitDy=0;entryX=0.5;entryY=0;entryDx=0;entryDy=0;" edge="1" parent="1" source="wE1RDp60XvU6DdDBw3GV-7" target="wE1RDp60XvU6DdDBw3GV-14">
          <mxGeometry relative="1" as="geometry" />
        </mxCell>
        <mxCell id="wE1RDp60XvU6DdDBw3GV-16" value="False" style="edgeLabel;html=1;align=center;verticalAlign=middle;resizable=0;points=[];" vertex="1" connectable="0" parent="wE1RDp60XvU6DdDBw3GV-15">
          <mxGeometry x="0.0185" y="3" relative="1" as="geometry">
            <mxPoint x="-1" as="offset" />
          </mxGeometry>
        </mxCell>
        <mxCell id="wE1RDp60XvU6DdDBw3GV-7" value="regem != 0" style="rhombus;whiteSpace=wrap;html=1;" vertex="1" parent="1">
          <mxGeometry x="347" y="410" width="134" height="140" as="geometry" />
        </mxCell>
        <mxCell id="wE1RDp60XvU6DdDBw3GV-14" value="End" style="rounded=1;whiteSpace=wrap;html=1;" vertex="1" parent="1">
          <mxGeometry x="354" y="640" width="120" height="60" as="geometry" />
        </mxCell>
      </root>
    </mxGraphModel>
  </diagram>
</mxfile>
